{"asset":{"version":"2.0","generator":"Blockbench 4.12.3 glTF exporter"},"scenes":[{"nodes":[20],"name":"blockbench_export"}],"scene":0,"nodes":[{"name":"Seat_Padding","mesh":0},{"name":"Seat_Head","mesh":1},{"name":"Seat_Stand","mesh":2},{"name":"Seat_Wood","mesh":3},{"name":"Seat_Plastic","mesh":4},{"name":"Seats","children":[0,1,2,3,4]},{"name":"Table_Metal","mesh":5},{"name":"Table_Wood","mesh":6},{"name":"Table_Bin","mesh":7},{"name":"Table","children":[6,7,8]},{"name":"Room_wall1","mesh":8},{"name":"Room_Floor","mesh":9},{"name":"Room_DoorWall","mesh":10},{"name":"Room_CeilingThing","mesh":11},{"name":"Room_WindowBlack","mesh":12},{"name":"Luggage_Metal","mesh":13},{"name":"Luggage_Wood","mesh":14},{"name":"Luggage_Light","mesh":15},{"name":"LuggageStorage","children":[15,16,17]},{"name":"Room","children":[10,11,12,13,14,18]},{"children":[5,9,19]}],"bufferViews":[{"buffer":0,"byteOffset":0,"byteLength":5184,"target":34962,"byteStride":12},{"buffer":0,"byteOffset":5184,"byteLength":5184,"target":34962,"byteStride":12},{"buffer":0,"byteOffset":10368,"byteLength":3456,"target":34962,"byteStride":8},{"buffer":0,"byteOffset":13824,"byteLength":1008,"target":34963},{"buffer":0,"byteOffset":14832,"byteLength":3024,"target":34962,"byteStride":12},{"buffer":0,"byteOffset":17856,"byteLength":3024,"target":34962,"byteStride":12},{"buffer":0,"byteOffset":20880,"byteLength":2016,"target":34962,"byteStride":8},{"buffer":0,"byteOffset":22896,"byteLength":624,"target":34963},{"buffer":0,"byteOffset":23520,"byteLength":288,"target":34962,"byteStride":12},{"buffer":0,"byteOffset":23808,"byteLength":288,"target":34962,"byteStride":12},{"buffer":0,"byteOffset":24096,"byteLength":192,"target":34962,"byteStride":8},{"buffer":0,"byteOffset":24288,"byteLength":72,"target":34963},{"buffer":0,"byteOffset":24360,"byteLength":576,"target":34962,"byteStride":12},{"buffer":0,"byteOffset":24936,"byteLength":576,"target":34962,"byteStride":12},{"buffer":0,"byteOffset":25512,"byteLength":384,"target":34962,"byteStride":8},{"buffer":0,"byteOffset":25896,"byteLength":144,"target":34963},{"buffer":0,"byteOffset":26040,"byteLength":4896,"target":34962,"byteStride":12},{"buffer":0,"byteOffset":30936,"byteLength":4896,"target":34962,"byteStride":12},{"buffer":0,"byteOffset":35832,"byteLength":3264,"target":34962,"byteStride":8},{"buffer":0,"byteOffset":39096,"byteLength":1104,"target":34963},{"buffer":0,"byteOffset":40200,"byteLength":1104,"target":34962,"byteStride":12},{"buffer":0,"byteOffset":41304,"byteLength":1104,"target":34962,"byteStride":12},{"buffer":0,"byteOffset":42408,"byteLength":736,"target":34962,"byteStride":8},{"buffer":0,"byteOffset":43144,"byteLength":264,"target":34963},{"buffer":0,"byteOffset":43408,"byteLength":528,"target":34962,"byteStride":12},{"buffer":0,"byteOffset":43936,"byteLength":528,"target":34962,"byteStride":12},{"buffer":0,"byteOffset":44464,"byteLength":352,"target":34962,"byteStride":8},{"buffer":0,"byteOffset":44816,"byteLength":120,"target":34963},{"buffer":0,"byteOffset":44936,"byteLength":1152,"target":34962,"byteStride":12},{"buffer":0,"byteOffset":46088,"byteLength":1152,"target":34962,"byteStride":12},{"buffer":0,"byteOffset":47240,"byteLength":768,"target":34962,"byteStride":8},{"buffer":0,"byteOffset":48008,"byteLength":264,"target":34963},{"buffer":0,"byteOffset":48272,"byteLength":5328,"target":34962,"byteStride":12},{"buffer":0,"byteOffset":53600,"byteLength":5328,"target":34962,"byteStride":12},{"buffer":0,"byteOffset":58928,"byteLength":3552,"target":34962,"byteStride":8},{"buffer":0,"byteOffset":62480,"byteLength":1140,"target":34963},{"buffer":0,"byteOffset":63620,"byteLength":288,"target":34962,"byteStride":12},{"buffer":0,"byteOffset":63908,"byteLength":288,"target":34962,"byteStride":12},{"buffer":0,"byteOffset":64196,"byteLength":192,"target":34962,"byteStride":8},{"buffer":0,"byteOffset":64388,"byteLength":72,"target":34963},{"buffer":0,"byteOffset":64460,"byteLength":1152,"target":34962,"byteStride":12},{"buffer":0,"byteOffset":65612,"byteLength":1152,"target":34962,"byteStride":12},{"buffer":0,"byteOffset":66764,"byteLength":768,"target":34962,"byteStride":8},{"buffer":0,"byteOffset":67532,"byteLength":264,"target":34963},{"buffer":0,"byteOffset":67796,"byteLength":288,"target":34962,"byteStride":12},{"buffer":0,"byteOffset":68084,"byteLength":288,"target":34962,"byteStride":12},{"buffer":0,"byteOffset":68372,"byteLength":192,"target":34962,"byteStride":8},{"buffer":0,"byteOffset":68564,"byteLength":72,"target":34963},{"buffer":0,"byteOffset":68636,"byteLength":5544,"target":34962,"byteStride":12},{"buffer":0,"byteOffset":74180,"byteLength":5544,"target":34962,"byteStride":12},{"buffer":0,"byteOffset":79724,"byteLength":3696,"target":34962,"byteStride":8},{"buffer":0,"byteOffset":83420,"byteLength":1164,"target":34963},{"buffer":0,"byteOffset":84584,"byteLength":3120,"target":34962,"byteStride":12},{"buffer":0,"byteOffset":87704,"byteLength":3120,"target":34962,"byteStride":12},{"buffer":0,"byteOffset":90824,"byteLength":2080,"target":34962,"byteStride":8},{"buffer":0,"byteOffset":92904,"byteLength":636,"target":34963},{"buffer":0,"byteOffset":93540,"byteLength":13056,"target":34962,"byteStride":12},{"buffer":0,"byteOffset":106596,"byteLength":13056,"target":34962,"byteStride":12},{"buffer":0,"byteOffset":119652,"byteLength":8704,"target":34962,"byteStride":8},{"buffer":0,"byteOffset":128356,"byteLength":2712,"target":34963},{"buffer":0,"byteOffset":131068,"byteLength":888,"target":34962,"byteStride":12},{"buffer":0,"byteOffset":131956,"byteLength":888,"target":34962,"byteStride":12},{"buffer":0,"byteOffset":132844,"byteLength":592,"target":34962,"byteStride":8},{"buffer":0,"byteOffset":133436,"byteLength":192,"target":34963}],"buffers":[{"byteLength":133628,"uri":"data:application/octet-stream;base64,"}],"accessors":[{"bufferView":0,"componentType":5126,"count":432,"max":[0.7747970223426819,0.6146339774131775,0.4800555109977722],"min":[0.22729599475860596,0.2795344889163971,0.14748899638652802],"type":"VEC3"},{"bufferView":1,"componentType":5126,"count":432,"max":[1,1,0.999005138874054],"min":[-1,-0.9998568296432495,-1],"type":"VEC3"},{"bufferView":2,"componentType":5126,"count":432,"max":[1,1],"min":[0,0],"type":"VEC2"},{"bufferView":3,"componentType":5123,"count":504,"max":[431],"min":[0],"type":"SCALAR"},{"bufferView":4,"componentType":5126,"count":252,"max":[0.7743899822235107,0.7072864770889282,0.492125004529953],"min":[0.22666150331497192,0.5939289927482605,0.45021599531173706],"type":"VEC3"},{"bufferView":5,"componentType":5126,"count":252,"max":[0.9911061525344849,0.9956223368644714,0.9985889196395874],"min":[-0.9911061525344849,-0.9996369481086731,-0.9967952966690063],"type":"VEC3"},{"bufferView":6,"componentType":5126,"count":252,"max":[1.0000499486923218,1.0000499486923218],"min":[0.125,0],"type":"VEC2"},{"bufferView":7,"componentType":5123,"count":312,"max":[251],"min":[0],"type":"SCALAR"},{"bufferView":8,"componentType":5126,"count":24,"max":[0.25248900055885315,0.300882488489151,0.40820199251174927],"min":[0.22748899459838867,0.050882499665021896,0.23820200562477112],"type":"VEC3"},{"bufferView":9,"componentType":5126,"count":24,"max":[1,1,1],"min":[-1,-1,-1],"type":"VEC3"},{"bufferView":10,"componentType":5126,"count":24,"max":[0.546875,1],"min":[0,0],"type":"VEC2"},{"bufferView":11,"componentType":5123,"count":36,"max":[23],"min":[0],"type":"SCALAR"},{"bufferView":12,"componentType":5126,"count":48,"max":[0.8012480139732361,0.40929800271987915,0.43075451254844666],"min":[0.19907300174236298,0.3815925121307373,0.1812414973974228],"type":"VEC3"},{"bufferView":13,"componentType":5126,"count":48,"max":[0.9956600069999695,0.9995182156562805,0.9701753854751587],"min":[-0.9956600069999695,-0.9994801878929138,-0.9325516819953918],"type":"VEC3"},{"bufferView":14,"componentType":5126,"count":48,"max":[1,1],"min":[0,0],"type":"VEC2"},{"bufferView":15,"componentType":5123,"count":72,"max":[47],"min":[0],"type":"SCALAR"},{"bufferView":16,"componentType":5126,"count":408,"max":[0.8029444813728333,0.7018435001373291,0.4872775077819824],"min":[0.17750349640846252,0.28566598892211914,0.15999899804592133],"type":"VEC3"},{"bufferView":17,"componentType":5126,"count":408,"max":[0.9999989867210388,0.9999982118606567,0.9978663921356201],"min":[-0.9999944567680359,-0.9999828934669495,-1],"type":"VEC3"},{"bufferView":18,"componentType":5126,"count":408,"max":[1.0000499486923218,1.0000499486923218],"min":[0,0.125],"type":"VEC2"},{"bufferView":19,"componentType":5123,"count":552,"max":[407],"min":[0],"type":"SCALAR"},{"bufferView":20,"componentType":5126,"count":92,"max":[0.7952719926834106,0.5476509928703308,0.1249995008111],"min":[0.27914050221443176,0.5222234725952148,-0.1249995008111],"type":"VEC3"},{"bufferView":21,"componentType":5126,"count":92,"max":[1,0.9999984502792358,0.9994108080863953],"min":[-1,-0.9999984502792358,-0.9994108080863953],"type":"VEC3"},{"bufferView":22,"componentType":5126,"count":92,"max":[1.0000499486923218,1],"min":[0,0],"type":"VEC2"},{"bufferView":23,"componentType":5123,"count":132,"max":[91],"min":[0],"type":"SCALAR"},{"bufferView":24,"componentType":5126,"count":44,"max":[0.7948014736175537,0.5467020273208618,0.11733999848365784],"min":[0.28759050369262695,0.5231729745864868,-0.11733999848365784],"type":"VEC3"},{"bufferView":25,"componentType":5126,"count":44,"max":[1,0.9999986290931702,0.9993892908096313],"min":[-1,-0.9999986290931702,-0.9993892908096313],"type":"VEC3"},{"bufferView":26,"componentType":5126,"count":44,"max":[1.0000499486923218,1.0000499486923218],"min":[0,0],"type":"VEC2"},{"bufferView":27,"componentType":5123,"count":60,"max":[43],"min":[0],"type":"SCALAR"},{"bufferView":28,"componentType":5126,"count":96,"max":[0.7956874966621399,0.5497184991836548,0.08868800103664398],"min":[0.7283114790916443,0.422342985868454,-0.08868800103664398],"type":"VEC3"},{"bufferView":29,"componentType":5126,"count":96,"max":[1,1,1],"min":[-1,-1,-1],"type":"VEC3"},{"bufferView":30,"componentType":5126,"count":96,"max":[1.0000499486923218,1.0000499486923218],"min":[0.125,0.125],"type":"VEC2"},{"bufferView":31,"componentType":5123,"count":132,"max":[95],"min":[0],"type":"SCALAR"},{"bufferView":32,"componentType":5126,"count":444,"max":[0.8717144727706909,1.586118459701538,2.5],"min":[0,-0.06380999833345413,-2.5],"type":"VEC3"},{"bufferView":33,"componentType":5126,"count":444,"max":[1,1,1],"min":[-1,-1,-1],"type":"VEC3"},{"bufferView":34,"componentType":5126,"count":444,"max":[1.0000499486923218,1],"min":[0,0],"type":"VEC2"},{"bufferView":35,"componentType":5123,"count":570,"max":[443],"min":[0],"type":"SCALAR"},{"bufferView":36,"componentType":5126,"count":24,"max":[0.8675000071525574,0.06657949835062027,2.5],"min":[-0.8675000071525574,-0.06342049688100815,-2.5],"type":"VEC3"},{"bufferView":37,"componentType":5126,"count":24,"max":[1,1,1],"min":[-1,-1,-1],"type":"VEC3"},{"bufferView":38,"componentType":5126,"count":24,"max":[1,1],"min":[0,0],"type":"VEC2"},{"bufferView":39,"componentType":5123,"count":36,"max":[23],"min":[0],"type":"SCALAR"},{"bufferView":40,"componentType":5126,"count":96,"max":[0.8675000071525574,1.485949993133545,-2.4230494499206543],"min":[-0.8675000071525574,-0.06380999833345413,-2.49804949760437],"type":"VEC3"},{"bufferView":41,"componentType":5126,"count":96,"max":[1,1,1],"min":[-1,-1,-1],"type":"VEC3"},{"bufferView":42,"componentType":5126,"count":96,"max":[1,1],"min":[0,0],"type":"VEC2"},{"bufferView":43,"componentType":5123,"count":132,"max":[95],"min":[0],"type":"SCALAR"},{"bufferView":44,"componentType":5126,"count":24,"max":[0.22499999403953552,1.438694953918457,2.5],"min":[-0.22499999403953552,1.3886950016021729,-2.5],"type":"VEC3"},{"bufferView":45,"componentType":5126,"count":24,"max":[1,1,1],"min":[-1,-1,-1],"type":"VEC3"},{"bufferView":46,"componentType":5126,"count":24,"max":[1,1],"min":[0,0],"type":"VEC2"},{"bufferView":47,"componentType":5123,"count":36,"max":[23],"min":[0],"type":"SCALAR"},{"bufferView":48,"componentType":5126,"count":462,"max":[0.8416609764099121,1.020822525024414,1.9299999475479126],"min":[0.8091260194778442,0.4608224928379059,-1.9299999475479126],"type":"VEC3"},{"bufferView":49,"componentType":5126,"count":462,"max":[1,1,1],"min":[-1,-1,-1],"type":"VEC3"},{"bufferView":50,"componentType":5126,"count":462,"max":[0.515625,0.6484375],"min":[0,0],"type":"VEC2"},{"bufferView":51,"componentType":5123,"count":582,"max":[461],"min":[0],"type":"SCALAR"},{"bufferView":52,"componentType":5126,"count":260,"max":[0.708002507686615,1.244483470916748,0.012633999809622765],"min":[0.32127049565315247,1.0506279468536377,-1.1873664855957031],"type":"VEC3"},{"bufferView":53,"componentType":5126,"count":260,"max":[0.9998478889465332,0.999848484992981,1],"min":[-0.9998475909233093,-0.9998477697372437,-1],"type":"VEC3"},{"bufferView":54,"componentType":5126,"count":260,"max":[1,0.96875],"min":[0,0],"type":"VEC2"},{"bufferView":55,"componentType":5123,"count":318,"max":[259],"min":[0],"type":"SCALAR"},{"bufferView":56,"componentType":5126,"count":1088,"max":[0.6842679977416992,1.086066484451294,-0.01427649985998869],"min":[0.375883013010025,1.05600905418396,-1.1604559421539307],"type":"VEC3"},{"bufferView":57,"componentType":5126,"count":1088,"max":[0.9999415278434753,0.9998498558998108,1],"min":[-0.999941349029541,-0.9998480081558228,-1],"type":"VEC3"},{"bufferView":58,"componentType":5126,"count":1088,"max":[1.0000499486923218,1.0000499486923218],"min":[0,0],"type":"VEC2"},{"bufferView":59,"componentType":5123,"count":1356,"max":[1087],"min":[0],"type":"SCALAR"},{"bufferView":60,"componentType":5126,"count":74,"max":[0.3599179983139038,1.0819940567016602,-0.05260400101542473],"min":[0.32230401039123535,1.0558899641036987,-1.122604489326477],"type":"VEC3"},{"bufferView":61,"componentType":5126,"count":74,"max":[0.9720224738121033,1,1],"min":[-1,-0.9996755123138428,-1],"type":"VEC3"},{"bufferView":62,"componentType":5126,"count":74,"max":[0.6112499833106995,0.53125],"min":[0,0],"type":"VEC2"},{"bufferView":63,"componentType":5123,"count":96,"max":[73],"min":[0],"type":"SCALAR"}],"materials":[{"pbrMetallicRoughness":{"metallicFactor":0,"roughnessFactor":1,"baseColorTexture":{"index":0}},"alphaMode":"MASK","alphaCutoff":0.05,"doubleSided":true},{"pbrMetallicRoughness":{"metallicFactor":0,"roughnessFactor":1,"baseColorTexture":{"index":1}},"alphaMode":"MASK","alphaCutoff":0.05,"doubleSided":true},{"pbrMetallicRoughness":{"metallicFactor":0,"roughnessFactor":1,"baseColorTexture":{"index":2}},"alphaMode":"MASK","alphaCutoff":0.05,"doubleSided":true},{"pbrMetallicRoughness":{"metallicFactor":0,"roughnessFactor":1,"baseColorTexture":{"index":3}},"alphaMode":"MASK","alphaCutoff":0.05,"doubleSided":true},{"pbrMetallicRoughness":{"metallicFactor":0,"roughnessFactor":1,"baseColorTexture":{"index":4}},"alphaMode":"MASK","alphaCutoff":0.05,"doubleSided":true},{"pbrMetallicRoughness":{"metallicFactor":0,"roughnessFactor":1,"baseColorTexture":{"index":5}},"alphaMode":"MASK","alphaCutoff":0.05,"doubleSided":true},{"pbrMetallicRoughness":{"metallicFactor":0,"roughnessFactor":1,"baseColorTexture":{"index":6}},"alphaMode":"MASK","alphaCutoff":0.05,"doubleSided":true}],"textures":[{"sampler":0,"source":0},{"sampler":1,"source":1},{"sampler":2,"source":2},{"sampler":3,"source":3},{"sampler":4,"source":4},{"sampler":5,"source":5,"name":"texture"},{"sampler":6,"source":6,"name":"texture"}],"samplers":[{"magFilter":9728,"minFilter":9728,"wrapS":33071,"wrapT":33071},{"magFilter":9728,"minFilter":9728,"wrapS":33071,"wrapT":33071},{"magFilter":9728,"minFilter":9728,"wrapS":33071,"wrapT":33071},{"magFilter":9728,"minFilter":9728,"wrapS":33071,"wrapT":33071},{"magFilter":9728,"minFilter":9728,"wrapS":33071,"wrapT":33071},{"magFilter":9728,"minFilter":9728,"wrapS":33071,"wrapT":33071},{"magFilter":9728,"minFilter":9728,"wrapS":33071,"wrapT":33071}],"images":[{"mimeType":"image/png","uri":"data:image/png;base64,"},{"mimeType":"image/png","uri":"data:image/png;base64,"},{"mimeType":"image/png","uri":"data:image/png;base64,"},{"mimeType":"image/png","uri":"data:image/png;base64,"},{"mimeType":"image/png","uri":"data:image/png;base64,"},{"mimeType":"image/png","uri":"data:image/png;base64,"},{"mimeType":"image/png","uri":"data:image/png;base64,"}],"meshes":[{"primitives":[{"mode":4,"attributes":{"POSITION":0,"NORMAL":1,"TEXCOORD_0":2},"indices":3,"material":0}]},{"primitives":[{"mode":4,"attributes":{"POSITION":4,"NORMAL":5,"TEXCOORD_0":6},"indices":7,"material":1}]},{"primitives":[{"mode":4,"attributes":{"POSITION":8,"NORMAL":9,"TEXCOORD_0":10},"indices":11,"material":2}]},{"primitives":[{"mode":4,"attributes":{"POSITION":12,"NORMAL":13,"TEXCOORD_0":14},"indices":15,"material":3}]},{"primitives":[{"mode":4,"attributes":{"POSITION":16,"NORMAL":17,"TEXCOORD_0":18},"indices":19,"material":2}]},{"primitives":[{"mode":4,"attributes":{"POSITION":20,"NORMAL":21,"TEXCOORD_0":22},"indices":23,"material":2}]},{"primitives":[{"mode":4,"attributes":{"POSITION":24,"NORMAL":25,"TEXCOORD_0":26},"indices":27,"material":3}]},{"primitives":[{"mode":4,"attributes":{"POSITION":28,"NORMAL":29,"TEXCOORD_0":30},"indices":31,"material":2}]},{"primitives":[{"mode":4,"attributes":{"POSITION":32,"NORMAL":33,"TEXCOORD_0":34},"indices":35,"material":4}]},{"primitives":[{"mode":4,"attributes":{"POSITION":36,"NORMAL":37,"TEXCOORD_0":38},"indices":39,"material":2}]},{"primitives":[{"mode":4,"attributes":{"POSITION":40,"NORMAL":41,"TEXCOORD_0":42},"indices":43,"material":4}]},{"primitives":[{"mode":4,"attributes":{"POSITION":44,"NORMAL":45,"TEXCOORD_0":46},"indices":47,"material":2}]},{"primitives":[{"mode":4,"attributes":{"POSITION":48,"NORMAL":49,"TEXCOORD_0":50},"indices":51,"material":5}]},{"primitives":[{"mode":4,"attributes":{"POSITION":52,"NORMAL":53,"TEXCOORD_0":54},"indices":55,"material":2}]},{"primitives":[{"mode":4,"attributes":{"POSITION":56,"NORMAL":57,"TEXCOORD_0":58},"indices":59,"material":3}]},{"primitives":[{"mode":4,"attributes":{"POSITION":60,"NORMAL":61,"TEXCOORD_0":62},"indices":63,"material":6}]}]}